<svg
  xmlns="http://www.w3.org/2000/svg"
  xmlns:xlink="http://www.w3.org/1999/xlink"
  version="1.1"
  width="256"
  height="256"
  viewBox="0 0 256 256"
  xml:space="preserve"
>
<desc>Created with Fabric.js 1.7.22</desc>
<defs>
</defs>
<g transform="translate(128 128) scale(0.72 0.72)" style="">
	<g
      style="stroke: none; stroke-width: 0; stroke-dasharray: none; stroke-linecap: butt; stroke-linejoin: miter; stroke-miterlimit: 10; fill: none; fill-rule: nonzero; opacity: 1;"
      transform="translate(-175.05 -175.05000000000004) scale(3.89 3.89)"
    >
	<path
        d="M 83.466 38.465 c -2.906 0 -5.372 1.907 -6.219 4.535 h -4.48 c -0.441 -6.175 -2.902 -11.797 -6.727 -16.211 l 3.176 -3.175 c 0.912 0.47 1.928 0.722 2.984 0.722 c 1.745 0 3.386 -0.68 4.62 -1.914 v 0 c 1.234 -1.234 1.915 -2.875 1.915 -4.621 c 0 -1.746 -0.681 -3.387 -1.915 -4.621 c -2.547 -2.548 -6.693 -2.547 -9.24 0 c -1.234 1.234 -1.915 2.875 -1.915 4.621 c 0 1.056 0.253 2.072 0.723 2.984 l -3.176 3.175 C 58.797 20.134 53.175 17.673 47 17.233 v -4.479 c 2.627 -0.847 4.534 -3.313 4.534 -6.219 C 51.534 2.932 48.603 0 45 0 c -3.603 0 -6.535 2.932 -6.535 6.535 c 0 2.905 1.907 5.371 4.535 6.219 v 4.479 c -6.176 0.441 -11.798 2.902 -16.212 6.728 l -3.176 -3.176 c 1.259 -2.457 0.864 -5.549 -1.191 -7.604 v 0 c -2.548 -2.547 -6.693 -2.547 -9.242 0 c -2.547 2.548 -2.547 6.693 0 9.241 c 1.274 1.274 2.947 1.911 4.621 1.911 c 1.025 0 2.05 -0.242 2.983 -0.72 l 3.176 3.176 C 20.135 31.202 17.673 36.824 17.233 43 h -4.479 c -0.847 -2.627 -3.313 -4.535 -6.219 -4.535 C 2.932 38.465 0 41.397 0 45 c 0 3.603 2.932 6.534 6.535 6.534 c 2.905 0 5.371 -1.907 6.219 -4.534 h 4.479 c 0.441 6.175 2.902 11.797 6.728 16.211 l -3.175 3.176 c -0.912 -0.47 -1.928 -0.723 -2.984 -0.723 c -1.746 0 -3.387 0.681 -4.621 1.915 c -2.548 2.548 -2.548 6.692 0 9.24 c 1.234 1.234 2.875 1.915 4.621 1.915 c 1.745 0 3.386 -0.681 4.621 -1.915 h 0 c 1.234 -1.234 1.914 -2.875 1.914 -4.62 c 0 -1.055 -0.253 -2.071 -0.722 -2.984 l 3.175 -3.176 c 4.414 3.826 10.036 6.286 16.211 6.727 v 4.48 c -2.627 0.847 -4.535 3.313 -4.535 6.219 C 38.465 87.068 41.397 90 45 90 c 3.603 0 6.534 -2.932 6.534 -6.534 c 0 -2.906 -1.907 -5.372 -4.534 -6.219 v -4.48 c 6.175 -0.441 11.797 -2.902 16.211 -6.728 l 3.176 3.176 c -0.47 0.913 -0.723 1.929 -0.723 2.984 c 0 1.745 0.681 3.387 1.914 4.62 c 1.234 1.234 2.876 1.915 4.621 1.915 s 3.387 -0.681 4.62 -1.914 c 1.234 -1.234 1.915 -2.876 1.915 -4.621 s -0.68 -3.386 -1.914 -4.62 c -0.001 0 -0.001 0 -0.001 0 s 0 0 0 -0.001 c -1.234 -1.234 -2.875 -1.914 -4.62 -1.914 c -1.056 0 -2.072 0.253 -2.984 0.723 l -3.176 -3.176 c 3.826 -4.414 6.287 -10.036 6.728 -16.211 h 4.48 c 0.847 2.627 3.313 4.534 6.219 4.534 C 87.068 51.534 90 48.603 90 45 C 90 41.397 87.068 38.465 83.466 38.465 z M 36.948 46.447 c -4.411 0 -8 -3.589 -8 -8 s 3.589 -8 8 -8 c 4.411 0 8 3.589 8 8 S 41.359 46.447 36.948 46.447 z M 53.957 59.223 c -3.309 0 -6 -2.691 -6 -6 s 2.691 -6 6 -6 s 6 2.691 6 6 S 57.266 59.223 53.957 59.223 z"
        style="stroke: none; stroke-width: 1; stroke-dasharray: none; stroke-linecap: butt; stroke-linejoin: miter; stroke-miterlimit: 10; fill: rgb(210,22,13); fill-rule: nonzero; opacity: 1;"
        transform=" matrix(1 0 0 1 0 0) "
        stroke-linecap="round"
      />
</g>
</g>
</svg>
